<?xml version="1.0" encoding="utf-8"?>
<!-- Generator: Adobe Illustrator 21.1.0, SVG Export Plug-In . SVG Version: 6.00 Build 0)  -->
<svg version="1.1" id="图层_1" xmlns="http://www.w3.org/2000/svg" xmlns:xlink="http://www.w3.org/1999/xlink" x="0px" y="0px"
	 viewBox="0 0 115 165" style="enable-background:new 0 0 115 165;" xml:space="preserve">
<style type="text/css">
	.st0{fill:#BF7FFF;}
	.st1{fill:#E7EAED;}
</style>
<g>
	<path class="st0" d="M108.7,162.5H6.3c-2.2,0-4-1.8-4-4V6.5c0-2.2,1.8-4,4-4h102.3c2.2,0,4,1.8,4,4v152
		C112.7,160.7,110.9,162.5,108.7,162.5z"/>
</g>
<circle class="st1" cx="21" cy="28" r="11"/>
<circle class="st1" cx="21" cy="58.2" r="11"/>
<circle class="st1" cx="21" cy="87.4" r="11"/>
<circle class="st1" cx="21" cy="117.6" r="11"/>
<rect x="35.9" y="20.5" class="st1" width="44.2" height="2.7"/>
<rect x="35.9" y="26.5" class="st1" width="70" height="2.7"/>
<rect x="35.9" y="31.9" class="st1" width="59.7" height="2.7"/>
<rect x="36" y="50.9" class="st1" width="44.2" height="2.7"/>
<rect x="36" y="57" class="st1" width="70" height="2.7"/>
<rect x="36" y="62.3" class="st1" width="59.7" height="2.7"/>
<rect x="35" y="80.4" class="st1" width="44.2" height="2.7"/>
<rect x="35" y="86.5" class="st1" width="70" height="2.7"/>
<rect x="35" y="91.8" class="st1" width="59.7" height="2.7"/>
<rect x="35" y="110.9" class="st1" width="44.2" height="2.7"/>
<rect x="35" y="116.9" class="st1" width="70" height="2.7"/>
<rect x="35" y="122.3" class="st1" width="59.7" height="2.7"/>
<rect x="9" y="137" class="st1" width="96" height="12"/>
</svg>
